<svg xmlns="http://www.w3.org/2000/svg" width="59.45" height="81.7" viewBox="0 0 59.45 81.7"><title>loading</title><g id="arriba"><path d="M38.08,63.1V52L52.86,66.75l-14.78,15V70.57A28.58,28.58,0,0,1,17.14,61.8,28.57,28.57,0,0,1,8.36,40.85,28.15,28.15,0,0,1,13.05,25l5.39,5.39a21.11,21.11,0,0,0-2.61,10.43,21.45,21.45,0,0,0,6.52,15.73A21.43,21.43,0,0,0,38.08,63.1Z" transform="translate(-8.36)" style="fill:#26c6da"/><path d="M38.08,11.12A28.61,28.61,0,0,1,59,19.9a28.63,28.63,0,0,1,8.78,21,28.13,28.13,0,0,1-4.7,15.82l-5.38-5.39a21.21,21.21,0,0,0,2.6-10.43,21.41,21.41,0,0,0-6.52-15.73A21.41,21.41,0,0,0,38.08,18.6V29.72L23.31,15,38.08,0Z" transform="translate(-8.36)" style="fill:#26c6da"/></g></svg>