<?xml version="1.0" encoding="UTF-8"?>
<svg width="160px" height="160px" viewBox="0 0 160 160" version="1.1" xmlns="http://www.w3.org/2000/svg" xmlns:xlink="http://www.w3.org/1999/xlink">
    <defs>
        <rect id="path-1" x="0" y="0" width="160" height="160" rx="24"></rect>
    </defs>
    <g id="UI" stroke="none" stroke-width="1" fill="none" fill-rule="evenodd">
        <g id="02a.Shortcut-save" transform="translate(-640.000000, -432.000000)">
            <g id="Group-2" transform="translate(640.000000, 432.000000)">
                <g id="Rectangle">
                    <use fill-opacity="0" fill="#D8D8D8" fill-rule="evenodd" xlink:href="#path-1"></use>
                    <rect stroke="#E6F1F2" stroke-width="4" x="2" y="2" width="156" height="156" rx="24"></rect>
                </g>
                <path d="M104,92.7721335 C104,69.6429608 68.0696325,76.7953556 68.0696325,65.3701016 C68.0696325,60.8185776 72.0618956,57.7532656 78.3752418,57.7532656 C83.3887814,57.7532656 88.4951644,59.053701 92.8588008,61.9332366 C93.787234,62.5834543 94.8085106,62.862119 95.8297872,62.862119 C98.5222437,62.862119 101.2147,60.6328012 101.2147,57.7532656 C101.2147,56.7314949 100.843327,55.616836 100.10058,54.7808418 C96.0154739,50.3222061 86.7311412,48 79.303675,48 C65.655706,48 56.7427466,55.8955007 56.7427466,66.2060958 C56.7427466,89.0566038 92.7659574,81.0682148 92.7659574,93.8867925 C92.7659574,97.8809869 89.237911,102.246734 80.5106383,102.246734 C74.0116054,102.246734 68.5338491,99.9245283 64.2630561,96.6734398 C63.4274662,96.0232221 62.3133462,95.7445573 61.2920696,95.7445573 C58.5067698,95.7445573 56,98.1596517 56,101.039187 C56,102.153846 56.3713733,103.175617 57.1141199,104.104499 C61.2920696,109.027576 70.9477756,112 80.0464217,112 C96.7582205,112 104,103.175617 104,92.7721335 Z" id="S" fill="#E6F1F2"></path>
            </g>
        </g>
    </g>
</svg>