<?xml version="1.0" encoding="UTF-8"?>
<svg width="100px" height="24px" viewBox="0 0 100 24" version="1.1" xmlns="http://www.w3.org/2000/svg" xmlns:xlink="http://www.w3.org/1999/xlink">
    <!-- Generator: Sketch 44.1 (41455) - http://www.bohemiancoding.com/sketch -->
    <title>vtrine</title>
    <desc>Created with Sketch.</desc>
    <defs></defs>
    <g id="Symbols" stroke="none" stroke-width="1" fill="none" fill-rule="evenodd">
        <g id="Header_home" transform="translate(-32.000000, -20.000000)" fill="#637273">
            <g id="Header">
                <path d="M48.1468528,28.3386861 C48.1468528,27.3576642 47.3812693,26.4817518 46.232894,26.4817518 C45.5021097,26.4817518 44.8061247,26.9021898 44.5277307,27.6379562 L40.0734264,39.2350365 L35.5843229,27.6029197 C35.3059289,26.9021898 34.6447431,26.4817518 33.8791596,26.4817518 C32.7655835,26.4817518 32,27.3927007 32,28.3036496 C32,28.5138686 32.0347993,28.7591241 32.139197,28.9693431 L37.4286833,42.0379562 C37.8462743,43.0890511 38.8902519,43.789781 40.0386272,43.789781 L40.1082257,43.789781 C41.256601,43.789781 42.2657793,43.0890511 42.7181696,42.0379562 L48.0076558,28.9693431 C48.1120536,28.7591241 48.1468528,28.5138686 48.1468528,28.3386861 Z M62.3840967,42.1781022 C62.3840967,41.2671533 61.7577102,40.5664234 60.7485319,40.5664234 C60.5397364,40.5664234 60.2265431,40.6715328 59.9829484,40.6715328 C59.1129671,40.6715328 58.3821828,39.9708029 58.3821828,38.6744526 L58.3821828,29.950365 L60.4353386,29.950365 C61.3053199,29.950365 62.001305,29.2145985 62.001305,28.3386861 C62.001305,27.3927007 61.3053199,26.6569343 60.4353386,26.6569343 L58.3821828,26.6569343 L58.3821828,23.6788321 C58.3821828,22.6627737 57.5818,21.8218978 56.5726217,21.8218978 C55.4938449,21.8218978 54.6586628,22.6627737 54.6586628,23.6788321 L54.6586628,26.6569343 L53.2666928,26.6569343 C52.3967115,26.6569343 51.6659272,27.3927007 51.6659272,28.2686131 C51.6659272,29.2145985 52.3967115,29.950365 53.2666928,29.950365 L54.6586628,29.950365 L54.6586628,39.620438 C54.6586628,42.4583942 56.1550307,44 59.0085693,44 C61.3749184,44 62.3840967,43.2992701 62.3840967,42.1781022 Z M77.1781287,28.0583942 C77.1781287,27.1474453 76.5517421,26.4467153 75.5425638,26.4467153 C73.767802,26.4467153 72.4454304,27.9182482 71.5406499,29.1445255 L71.5406499,28.2686131 C71.5406499,27.2875912 70.7054678,26.4467153 69.7310888,26.4467153 C68.6175127,26.4467153 67.8171299,27.2875912 67.8171299,28.2686131 L67.8171299,41.9328467 C67.8171299,42.9489051 68.6175127,43.789781 69.626691,43.789781 L69.6962895,43.789781 C70.7054678,43.789781 71.5406499,42.9489051 71.5406499,41.9328467 L71.5406499,32.0875912 C72.4454304,30.7912409 73.8721997,30.1605839 75.3685676,30.020438 C76.4125451,29.880292 77.1781287,29.179562 77.1781287,28.0583942 Z M84.4903215,20 C83.2375484,20 82.1935708,21.0160584 82.1935708,22.2773723 C82.1935708,23.5737226 83.2375484,24.589781 84.4903215,24.589781 C85.7430945,24.589781 86.7870721,23.5737226 86.7870721,22.2773723 C86.7870721,21.0160584 85.7430945,20 84.4903215,20 Z M86.3694811,41.9328467 L86.3694811,28.2686131 C86.3694811,27.2875912 85.534299,26.4467153 84.55992,26.4467153 C83.4463439,26.4467153 82.6459611,27.2875912 82.6459611,28.2686131 L82.6459611,41.9328467 C82.6459611,42.9489051 83.4463439,43.789781 84.4903215,43.789781 C85.534299,43.789781 86.3694811,42.9489051 86.3694811,41.9328467 Z M108.854148,41.9328467 L108.854148,31.6671533 C108.854148,28.2335766 107.044587,26.2364964 103.425464,26.2364964 C100.745922,26.2364964 98.6231676,27.6379562 97.5095915,28.9693431 L97.5095915,28.2686131 C97.5095915,27.2875912 96.6744095,26.4467153 95.7000304,26.4467153 C94.5864544,26.4467153 93.7860716,27.2875912 93.7860716,28.2686131 L93.7860716,41.9328467 C93.7860716,42.9489051 94.5864544,43.789781 95.6304319,43.789781 C96.6744095,43.789781 97.5095915,42.9489051 97.5095915,41.9328467 L97.5095915,31.8072993 C98.3099743,30.6510949 99.9107399,29.5649635 101.7551,29.5649635 C103.808256,29.5649635 105.130628,30.4408759 105.130628,33.0335766 L105.130628,41.9328467 C105.130628,42.9489051 105.93101,43.789781 106.974988,43.789781 C108.018966,43.789781 108.854148,42.9489051 108.854148,41.9328467 Z M132,34.5051095 C132,35.4861314 131.199617,36.3270073 130.190439,36.3270073 L119.124277,36.3270073 C119.367872,38.849635 121.28183,40.9868613 124.413763,40.9868613 C125.631737,40.9868613 127.023707,40.6014599 128.172082,39.8656934 C128.415677,39.7255474 128.694071,39.6554745 128.937666,39.6554745 C129.703249,39.6554745 130.503632,40.2861314 130.503632,41.1970803 C130.503632,43.1240876 126.188525,44 124.030971,44 C118.98508,44 115.226761,40.4613139 115.226761,35.1007299 C115.226761,30.1956204 118.776284,26.2364964 123.752577,26.2364964 C127.684893,26.2364964 130.538431,28.6189781 131.582409,32.2627737 C131.791204,32.9635036 132,33.7693431 132,34.5051095 Z M128.415677,33.7343066 C128.346079,31.7722628 127.023707,29.249635 123.752577,29.249635 C120.690243,29.249635 119.263474,31.7021898 119.089478,33.7343066 L128.415677,33.7343066 Z" id="vtrine"></path>
            </g>
        </g>
    </g>
</svg>